<?xml version="1.0" encoding="utf-8"?>
<!-- Generator: Adobe Illustrator 15.0.0, SVG Export Plug-In . SVG Version: 6.00 Build 0)  -->
<!DOCTYPE svg PUBLIC "-//W3C//DTD SVG 1.1//EN" "http://www.w3.org/Graphics/SVG/1.1/DTD/svg11.dtd">
<svg version="1.1" id="Layer_1" xmlns="http://www.w3.org/2000/svg" xmlns:xlink="http://www.w3.org/1999/xlink" x="0px" y="0px"
	 width="190.553px" height="48.299px" viewBox="0 0 190.553 48.299" enable-background="new 0 0 190.553 48.299"
	 xml:space="preserve">
<g>
	<path fill="#FFFFFF" d="M140.167,16.689c-4.361,0-5.77,3.893-5.77,7.833s1.502,7.692,5.816,7.692c4.362,0,5.77-3.752,5.77-7.692
		C145.983,20.676,144.435,16.689,140.167,16.689z"/>
	<path fill="#FFFFFF" d="M112.072,16.689c-4.222,0-5.44,3.283-5.534,5.159h10.834C116.762,18.472,115.308,16.689,112.072,16.689z"/>
	<path fill="#FFFFFF" d="M25.91,29.682c0,2.486,1.923,3.096,4.081,3.096c5.207,0,5.395-4.127,5.395-5.581V24.71
		c-1.126,0.985-3.471,1.032-5.535,1.407C27.786,26.539,25.91,27.243,25.91,29.682z"/>
	<path fill="#FFFFFF" d="M0,0v48.298h190.553V0H0z M36.135,36.577c-0.234-0.751-0.422-1.548-0.469-2.346
		c-2.111,2.205-5.207,3.002-8.162,3.002c-4.597,0-8.255-2.298-8.255-7.27c0-5.488,4.128-6.802,8.255-7.364
		c4.081-0.61,7.88-0.47,7.88-3.189c0-2.861-1.97-3.284-4.315-3.284c-2.533,0-4.175,1.032-4.409,3.659H20
		c0.375-6.238,5.957-8.115,11.398-8.115c4.832,0,10.647,1.079,10.647,6.896v12.617c0,2.205,0.235,4.409,0.845,5.395H36.135z
		 M58.696,37.233c-7.317,0-12.243-5.159-12.243-12.43c0-7.552,4.503-13.134,12.383-13.134c5.723,0,10.976,3.002,11.398,9.194h-6.52
		c-0.422-2.721-2.157-4.175-4.925-4.175c-4.269,0-5.676,4.315-5.676,7.88c0,3.471,1.36,7.646,5.535,7.646
		c3.096,0,4.878-1.97,5.3-4.925h6.426C69.531,33.716,65.075,37.233,58.696,37.233z M85.618,37.233
		c-7.317,0-12.243-5.159-12.243-12.43c0-7.552,4.503-13.134,12.383-13.134c5.722,0,10.976,3.002,11.398,9.194h-6.52
		c-0.422-2.721-2.158-4.175-4.925-4.175c-4.269,0-5.676,4.315-5.676,7.88c0,3.471,1.36,7.646,5.535,7.646
		c3.096,0,4.878-1.97,5.3-4.925h6.426C96.454,33.716,91.997,37.233,85.618,37.233z M124.033,26.07h-17.495
		c0.188,4.222,2.251,6.145,5.957,6.145c2.673,0,4.83-1.642,5.253-3.143h5.862c-1.875,5.723-5.862,8.161-11.351,8.161
		c-7.646,0-12.383-5.253-12.383-12.758c0-7.271,5.019-12.806,12.383-12.806C120.514,11.67,124.502,18.612,124.033,26.07z
		 M141.997,37.233c-2.908,0-5.676-1.266-7.271-3.658h-0.094v11.539h-6.66V12.327h6.332v3.096h0.094
		c1.596-2.58,4.223-3.753,7.225-3.753c7.598,0,11.021,6.145,11.021,13.04C152.643,31.183,149.079,37.233,141.997,37.233z
		 M169.95,16.783h-4.877v12.008c0,2.251,0.562,2.814,2.813,2.814c0.704,0,1.36-0.047,2.063-0.188v5.206
		c-1.125,0.188-2.579,0.234-3.893,0.234c-4.081,0-7.646-0.938-7.646-5.77V16.783h-4.034v-4.456h4.034V5.057h6.661v7.271h4.877
		V16.783z"/>
	<path fill="#C31D85" d="M42.045,18.565c0-5.816-5.816-6.896-10.647-6.896c-5.441,0-11.022,1.877-11.398,8.115h6.661
		c0.234-2.627,1.876-3.659,4.409-3.659c2.345,0,4.315,0.423,4.315,3.284c0,2.72-3.8,2.579-7.88,3.189
		c-4.127,0.562-8.255,1.876-8.255,7.364c0,4.972,3.659,7.27,8.255,7.27c2.955,0,6.051-0.797,8.162-3.002
		c0.047,0.798,0.234,1.595,0.469,2.346h6.755c-0.61-0.985-0.845-3.189-0.845-5.395V18.565z M35.385,27.196
		c0,1.454-0.188,5.581-5.395,5.581c-2.158,0-4.081-0.609-4.081-3.096c0-2.438,1.876-3.143,3.94-3.564
		c2.064-0.375,4.409-0.422,5.535-1.407V27.196z"/>
	<path fill="#C31D85" d="M58.649,32.215c-4.175,0-5.535-4.175-5.535-7.646c0-3.564,1.407-7.88,5.676-7.88
		c2.768,0,4.503,1.454,4.925,4.175h6.52c-0.422-6.192-5.675-9.194-11.398-9.194c-7.88,0-12.383,5.582-12.383,13.134
		c0,7.271,4.925,12.43,12.243,12.43c6.379,0,10.835-3.518,11.679-9.943h-6.426C63.527,30.245,61.745,32.215,58.649,32.215z"/>
	<path fill="#C31D85" d="M85.571,32.215c-4.175,0-5.535-4.175-5.535-7.646c0-3.564,1.407-7.88,5.676-7.88
		c2.767,0,4.503,1.454,4.925,4.175h6.52c-0.422-6.192-5.676-9.194-11.398-9.194c-7.88,0-12.383,5.582-12.383,13.134
		c0,7.271,4.925,12.43,12.243,12.43c6.379,0,10.835-3.518,11.679-9.943h-6.426C90.449,30.245,88.667,32.215,85.571,32.215z"/>
	<path fill="#C31D85" d="M112.259,11.67c-7.364,0-12.383,5.535-12.383,12.806c0,7.505,4.737,12.758,12.383,12.758
		c5.488,0,9.476-2.438,11.351-8.161h-5.862c-0.423,1.501-2.58,3.143-5.253,3.143c-3.706,0-5.77-1.923-5.957-6.145h17.495
		C124.502,18.612,120.514,11.67,112.259,11.67z M106.538,21.849c0.094-1.876,1.312-5.159,5.534-5.159c3.236,0,4.69,1.782,5.3,5.159
		H106.538z"/>
	<path fill="#C31D85" d="M141.622,11.67c-3.002,0-5.629,1.173-7.225,3.753h-0.094v-3.096h-6.332v32.787h6.66V33.575h0.094
		c1.596,2.393,4.363,3.658,7.271,3.658c7.082,0,10.646-6.051,10.646-12.523C152.643,17.814,149.219,11.67,141.622,11.67z
		 M140.213,32.215c-4.314,0-5.816-3.752-5.816-7.692s1.408-7.833,5.77-7.833c4.269,0,5.816,3.986,5.816,7.833
		C145.983,28.463,144.576,32.215,140.213,32.215z"/>
	<path fill="#C31D85" d="M165.073,5.057h-6.661v7.271h-4.034v4.456h4.034v14.306c0,4.832,3.564,5.77,7.646,5.77
		c1.313,0,2.768-0.047,3.893-0.234v-5.206c-0.703,0.141-1.359,0.188-2.063,0.188c-2.251,0-2.813-0.563-2.813-2.814V16.783h4.877
		v-4.456h-4.877V5.057z"/>
</g>
</svg>
