<?xml version="1.0" encoding="utf-8"?>
<!-- Generator: Adobe Illustrator 15.0.0, SVG Export Plug-In . SVG Version: 6.00 Build 0)  -->
<!DOCTYPE svg PUBLIC "-//W3C//DTD SVG 1.1//EN" "http://www.w3.org/Graphics/SVG/1.1/DTD/svg11.dtd">
<svg version="1.1" id="Layer_1" xmlns="http://www.w3.org/2000/svg" xmlns:xlink="http://www.w3.org/1999/xlink" x="0px" y="0px"
	 width="190.553px" height="48.299px" viewBox="0 0 190.553 48.299" enable-background="new 0 0 190.553 48.299"
	 xml:space="preserve">
<g>
	<path fill="#FFFFFF" d="M140.167,16.689c-4.361,0-5.77,3.893-5.77,7.833s1.502,7.692,5.816,7.692c4.362,0,5.77-3.752,5.77-7.692
		C145.983,20.676,144.435,16.689,140.167,16.689z"/>
	<path fill="#FFFFFF" d="M112.072,16.689c-4.222,0-5.44,3.283-5.534,5.159h10.834C116.762,18.472,115.308,16.689,112.072,16.689z"/>
	<path fill="#FFFFFF" d="M25.91,29.682c0,2.486,1.923,3.096,4.081,3.096c5.207,0,5.395-4.127,5.395-5.581V24.71
		c-1.126,0.985-3.471,1.032-5.535,1.407C27.786,26.539,25.91,27.243,25.91,29.682z"/>
	<path fill="#FFFFFF" d="M0,0v48.298h190.553V0H0z M36.135,36.577c-0.234-0.751-0.422-1.548-0.469-2.346
		c-2.111,2.205-5.207,3.002-8.162,3.002c-4.597,0-8.255-2.298-8.255-7.27c0-5.488,4.128-6.802,8.255-7.364
		c4.081-0.61,7.88-0.47,7.88-3.189c0-2.861-1.97-3.284-4.315-3.284c-2.533,0-4.175,1.032-4.409,3.659H20
		c0.375-6.238,5.957-8.115,11.398-8.115c4.832,0,10.647,1.079,10.647,6.896v12.617c0,2.205,0.235,4.409,0.845,5.395H36.135z
		 M58.696,37.233c-7.317,0-12.243-5.159-12.243-12.43c0-7.552,4.503-13.134,12.383-13.134c5.723,0,10.976,3.002,11.398,9.194h-6.52
		c-0.422-2.721-2.157-4.175-4.925-4.175c-4.269,0-5.676,4.315-5.676,7.88c0,3.471,1.36,7.646,5.535,7.646
		c3.096,0,4.878-1.97,5.3-4.925h6.426C69.531,33.716,65.075,37.233,58.696,37.233z M85.618,37.233
		c-7.317,0-12.243-5.159-12.243-12.43c0-7.552,4.503-13.134,12.383-13.134c5.722,0,10.976,3.002,11.398,9.194h-6.52
		c-0.422-2.721-2.158-4.175-4.925-4.175c-4.269,0-5.676,4.315-5.676,7.88c0,3.471,1.36,7.646,5.535,7.646
		c3.096,0,4.878-1.97,5.3-4.925h6.426C96.454,33.716,91.997,37.233,85.618,37.233z M124.033,26.07h-17.495
		c0.188,4.222,2.251,6.145,5.957,6.145c2.673,0,4.83-1.642,5.253-3.143h5.862c-1.875,5.723-5.862,8.161-11.351,8.161
		c-7.646,0-12.383-5.253-12.383-12.758c0-7.271,5.019-12.806,12.383-12.806C120.514,11.67,124.502,18.612,124.033,26.07z
		 M141.997,37.233c-2.908,0-5.676-1.266-7.271-3.658h-0.094v11.539h-6.66V12.327h6.332v3.096h0.094
		c1.596-2.58,4.223-3.753,7.225-3.753c7.598,0,11.021,6.145,11.021,13.04C152.643,31.183,149.079,37.233,141.997,37.233z
		 M169.95,16.783h-4.877v12.008c0,2.251,0.562,2.814,2.813,2.814c0.704,0,1.36-0.047,2.063-0.188v5.206
		c-1.125,0.188-2.579,0.234-3.893,0.234c-4.081,0-7.646-0.938-7.646-5.77V16.783h-4.034v-4.456h4.034V5.057h6.661v7.271h4.877
		V16.783z"/>
</g>
</svg>
