<?xml version="1.0" encoding="utf-8"?>
<!-- Generator: Adobe Illustrator 19.1.0, SVG Export Plug-In . SVG Version: 6.00 Build 0)  -->
<svg version="1.1" id="Layer_1" xmlns="http://www.w3.org/2000/svg" xmlns:xlink="http://www.w3.org/1999/xlink" x="0px" y="0px"
	 viewBox="-10 -220 938 1000" style="enable-background:new -10 -220 938 1000;" xml:space="preserve">
<style type="text/css">
	.st0{fill:#999999;}
</style>
<path class="st0" d="M823.8,539.8c28.3,0,52.7,10.2,73.1,30.6s30.6,45.2,30.6,74.4c0,28.3-10,52.7-30,73.1s-44.6,30.6-73.8,30.6
	h-730c-29.2,0-53.8-10.2-73.8-30.6s-30-44.8-30-73.1c0-29.2,10.2-54,30.6-74.4s44.8-30.6,73.1-30.6H823.8z M823.8,176
	c29.2,0,53.8,10.2,73.8,30.6s30,44.8,30,73.1c0,28.3-10,52.7-30,73.1s-44.6,30.6-73.8,30.6h-730c-29.2,0-53.8-10.2-73.8-30.6
	s-30-44.8-30-73.1c0-28.3,10-52.7,30-73.1S64.6,176,93.8,176H823.8z M823.8-189c29.2,0,53.8,10.2,73.8,30.6s30,44.8,30,73.1
	c0,29.2-10.2,54-30.6,74.4s-44.8,30.6-73.1,30.6h-730C65.4,19.8,41,9.5,20.6-10.9S-10-56.1-10-85.2c0-28.3,10-52.7,30-73.1
	S64.6-189,93.8-189H823.8z"/>
</svg>
