<?xml version="1.0" encoding="utf-8"?>
<!-- Generator: Adobe Illustrator 15.0.0, SVG Export Plug-In . SVG Version: 6.00 Build 0)  -->
<!DOCTYPE svg PUBLIC "-//W3C//DTD SVG 1.1//EN" "http://www.w3.org/Graphics/SVG/1.1/DTD/svg11.dtd">
<svg version="1.1" id="Layer_1" xmlns="http://www.w3.org/2000/svg" xmlns:xlink="http://www.w3.org/1999/xlink" x="0px" y="0px"
	 width="36px" height="36px" viewBox="0 0 36 36" enable-background="new 0 0 36 36" xml:space="preserve">
<linearGradient id="SVGID_1_" gradientUnits="userSpaceOnUse" x1="272.2139" y1="-347.2354" x2="303.5617" y2="-335.202" gradientTransform="matrix(1 0 0 -1 -270 -323)">
	<stop  offset="0" style="stop-color:#E6E6E6"/>
	<stop  offset="1" style="stop-color:#BDBDBD"/>
</linearGradient>
<path fill="url(#SVGID_1_)" d="M5.339,25.324c-1.088,0-1.97,0.881-1.97,1.969v0.049c0,1.088,0.882,1.971,1.97,1.971h24.787
	c1.088,0,1.97-0.883,1.97-1.971v-0.049c0-1.088-0.882-1.969-1.97-1.969H5.339z M5.339,16.284c-1.088,0-1.97,0.882-1.97,1.97v0.049
	c0,1.087,0.882,1.97,1.97,1.97h24.787c1.088,0,1.97-0.883,1.97-1.97v-0.049c0-1.088-0.882-1.97-1.97-1.97H5.339z M5.339,7.244
	c-1.088,0-1.97,0.882-1.97,1.97v0.048c0,1.088,0.882,1.97,1.97,1.97h24.787c1.088,0,1.97-0.882,1.97-1.97V9.214
	c0-1.088-0.882-1.97-1.97-1.97H5.339z"/>
</svg>
