<?xml version="1.0" encoding="utf-8"?>
<!-- Generator: Adobe Illustrator 15.0.0, SVG Export Plug-In . SVG Version: 6.00 Build 0)  -->
<!DOCTYPE svg PUBLIC "-//W3C//DTD SVG 1.1//EN" "http://www.w3.org/Graphics/SVG/1.1/DTD/svg11.dtd">
<svg version="1.1" id="Layer_1" xmlns="http://www.w3.org/2000/svg" xmlns:xlink="http://www.w3.org/1999/xlink" x="0px" y="0px"
	 width="87.449px" height="21.458px" viewBox="0 0 87.449 21.458" enable-background="new 0 0 87.449 21.458" xml:space="preserve">
<polygon fill="#898989" points="76.579,4.137 86.835,11.801 76.579,19.467 "/>
<g>
	<path fill="#898989" d="M3.734,0.81l10.47,16.213h0.056V0.81h2.506v19.992H13.87L3.484,4.758H3.428v16.044H0.922V0.81H3.734z"/>
	<path fill="#898989" d="M34.78,0.81v2.24H23.698v6.356h10.331v2.24H23.698v6.916h11.166v2.24H21.053V0.81H34.78z"/>
	<path fill="#898989" d="M36.256,0.81h3.174l4.956,7.812l5.18-7.812h2.951l-6.571,9.716l6.989,10.276h-3.23l-5.346-8.26l-5.513,8.26
		h-2.952l6.905-10.276L36.256,0.81z"/>
	<path fill="#898989" d="M52.962,3.05V0.81h15.898v2.24h-6.627v17.752h-2.645V3.05H52.962z"/>
</g>
</svg>
