<?xml version="1.0" encoding="utf-8"?>
<!-- Generator: Adobe Illustrator 15.0.0, SVG Export Plug-In  -->
<!DOCTYPE svg PUBLIC "-//W3C//DTD SVG 1.1//EN" "http://www.w3.org/Graphics/SVG/1.1/DTD/svg11.dtd" [
	<!ENTITY ns_flows "http://ns.adobe.com/Flows/1.0/">
]>
<svg version="1.1"
	 xmlns="http://www.w3.org/2000/svg" xmlns:xlink="http://www.w3.org/1999/xlink" xmlns:a="http://ns.adobe.com/AdobeSVGViewerExtensions/3.0/"
	 x="0px" y="0px" width="191px" height="48px" viewBox="0 0 191 48" overflow="visible" enable-background="new 0 0 191 48"
	 xml:space="preserve">
<defs>
</defs>
<rect fill="#FFFFFF" width="190.553" height="48.298"/>
<path fill="#C31D85" d="M20,19.785c0.375-6.238,5.957-8.115,11.398-8.115c4.832,0,10.647,1.079,10.647,6.896v12.617
	c0,2.205,0.235,4.409,0.845,5.395h-6.755c-0.234-0.751-0.422-1.548-0.469-2.346c-2.111,2.205-5.207,3.002-8.162,3.002
	c-4.597,0-8.255-2.298-8.255-7.27c0-5.488,4.128-6.802,8.255-7.364c4.081-0.61,7.88-0.47,7.88-3.189c0-2.861-1.97-3.284-4.315-3.284
	c-2.533,0-4.175,1.032-4.409,3.659H20z M35.385,24.71c-1.126,0.985-3.471,1.032-5.535,1.407c-2.064,0.422-3.94,1.126-3.94,3.564
	c0,2.486,1.923,3.096,4.081,3.096c5.207,0,5.395-4.127,5.395-5.581V24.71z"/>
<path fill="#C31D85" d="M63.714,20.864c-0.422-2.721-2.157-4.175-4.925-4.175c-4.269,0-5.676,4.315-5.676,7.88
	c0,3.471,1.36,7.646,5.535,7.646c3.096,0,4.878-1.97,5.3-4.925h6.426c-0.844,6.426-5.3,9.943-11.679,9.943
	c-7.317,0-12.243-5.159-12.243-12.43c0-7.552,4.503-13.134,12.383-13.134c5.723,0,10.976,3.002,11.398,9.194H63.714z"/>
<path fill="#C31D85" d="M90.637,20.864c-0.422-2.721-2.158-4.175-4.925-4.175c-4.269,0-5.676,4.315-5.676,7.88
	c0,3.471,1.36,7.646,5.535,7.646c3.096,0,4.878-1.97,5.3-4.925h6.426c-0.844,6.426-5.3,9.943-11.679,9.943
	c-7.317,0-12.243-5.159-12.243-12.43c0-7.552,4.503-13.134,12.383-13.134c5.722,0,10.976,3.002,11.398,9.194H90.637z"/>
<path fill="#C31D85" d="M106.537,26.07c0.188,4.222,2.251,6.145,5.957,6.145c2.673,0,4.831-1.642,5.253-3.143h5.863
	c-1.876,5.723-5.863,8.161-11.351,8.161c-7.646,0-12.383-5.253-12.383-12.758c0-7.271,5.019-12.806,12.383-12.806
	c8.255,0,12.243,6.942,11.773,14.4H106.537z M117.372,21.849c-0.61-3.377-2.064-5.159-5.3-5.159c-4.222,0-5.441,3.283-5.535,5.159
	H117.372z"/>
<path fill="#C31D85" d="M127.971,12.327h6.333v3.096h0.094c1.595-2.58,4.222-3.753,7.224-3.753c7.599,0,11.022,6.145,11.022,13.04
	c0,6.473-3.565,12.523-10.647,12.523c-2.908,0-5.675-1.266-7.271-3.658h-0.094v11.539h-6.661V12.327z M145.982,24.522
	c0-3.847-1.547-7.833-5.815-7.833c-4.362,0-5.77,3.893-5.77,7.833s1.501,7.692,5.816,7.692
	C144.576,32.215,145.982,28.463,145.982,24.522z"/>
<path fill="#C31D85" d="M165.072,12.327h4.878v4.456h-4.878v12.008c0,2.251,0.562,2.814,2.814,2.814
	c0.703,0,1.359-0.047,2.063-0.188v5.206c-1.126,0.188-2.579,0.234-3.894,0.234c-4.08,0-7.645-0.938-7.645-5.77V16.783h-4.035v-4.456
	h4.035V5.057h6.66V12.327z"/>
</svg>
