<?xml version="1.0" encoding="utf-8"?>
<!-- Generator: Adobe Illustrator 15.0.0, SVG Export Plug-In . SVG Version: 6.00 Build 0)  -->
<!DOCTYPE svg PUBLIC "-//W3C//DTD SVG 1.0//EN" "http://www.w3.org/TR/2001/REC-SVG-20010904/DTD/svg10.dtd">
<svg version="1.0" id="Layer_1" xmlns="http://www.w3.org/2000/svg" xmlns:xlink="http://www.w3.org/1999/xlink" x="0px" y="0px"
	 width="90.073px" height="21.458px" viewBox="-2.624 0 90.073 21.458" enable-background="new -2.624 0 90.073 21.458"
	 xml:space="preserve">
<polygon fill="#898989" points="76.579,4.137 86.835,11.801 76.579,19.467 "/>
<g>
	<path fill="#999999" d="M9.274,3.549c-0.88-0.643-2.005-0.964-3.376-0.964c-0.556,0-1.102,0.056-1.639,0.168
		C3.722,2.864,3.246,3.051,2.829,3.312c-0.417,0.261-0.75,0.61-1,1.048S1.454,5.342,1.454,5.994c0,0.615,0.18,1.113,0.542,1.495
		C2.356,7.87,2.838,8.182,3.44,8.424c0.602,0.242,1.282,0.442,2.042,0.601c0.759,0.158,1.532,0.331,2.32,0.517
		c0.787,0.187,1.56,0.405,2.32,0.657c0.759,0.251,1.44,0.592,2.042,1.02c0.602,0.429,1.083,0.969,1.445,1.62
		c0.361,0.652,0.542,1.472,0.542,2.459c0,1.062-0.236,1.97-0.708,2.724c-0.473,0.754-1.08,1.369-1.82,1.844
		c-0.741,0.476-1.57,0.82-2.487,1.034c-0.917,0.214-1.829,0.321-2.736,0.321c-1.111,0-2.163-0.14-3.153-0.419
		c-0.991-0.279-1.862-0.703-2.612-1.271s-1.343-1.294-1.778-2.18c-0.435-0.884-0.653-1.932-0.653-3.143h2.5
		c0,0.838,0.162,1.561,0.486,2.165c0.324,0.605,0.75,1.104,1.278,1.495c0.528,0.391,1.144,0.68,1.848,0.866
		c0.704,0.186,1.426,0.279,2.167,0.279c0.593,0,1.19-0.057,1.792-0.168s1.144-0.303,1.625-0.572
		c0.481-0.271,0.871-0.639,1.167-1.104c0.296-0.465,0.444-1.062,0.444-1.788c0-0.688-0.181-1.247-0.542-1.676
		c-0.361-0.429-0.843-0.777-1.445-1.048C8.922,12.387,8.242,12.167,7.482,12c-0.76-0.168-1.533-0.34-2.32-0.518
		c-0.788-0.176-1.561-0.381-2.32-0.614c-0.76-0.232-1.44-0.54-2.042-0.922c-0.602-0.381-1.083-0.875-1.444-1.48
		c-0.361-0.605-0.542-1.364-0.542-2.277c0-1.005,0.204-1.876,0.611-2.612c0.407-0.736,0.949-1.341,1.625-1.816
		c0.676-0.475,1.445-0.828,2.306-1.062C4.218,0.467,5.102,0.35,6.01,0.35c1.019,0,1.963,0.121,2.834,0.363
		c0.87,0.242,1.634,0.624,2.292,1.146c0.657,0.521,1.176,1.178,1.556,1.969c0.379,0.792,0.588,1.737,0.625,2.836h-2.5
		C10.668,5.23,10.154,4.191,9.274,3.549z"/>
	<path fill="#999999" d="M30.487,0.825V3.06H19.429v6.342h10.307v2.235H19.429v6.9H30.57v2.235H16.79V0.825H30.487z"/>
	<path fill="#999999" d="M35.987,0.825l10.446,16.176h0.056V0.825h2.501v19.948h-2.89L35.737,4.764h-0.056v16.009h-2.5V0.825H35.987
		z"/>
	<path fill="#999999" d="M59.519,0.825c3.057,0,5.408,0.782,7.058,2.347c1.647,1.564,2.473,3.949,2.473,7.152
		c0,1.676-0.186,3.162-0.556,4.456c-0.371,1.295-0.945,2.385-1.723,3.27c-0.778,0.885-1.77,1.56-2.973,2.025
		c-1.205,0.466-2.631,0.698-4.279,0.698h-6.807V0.825H59.519z M59.741,18.538c0.296,0,0.667-0.022,1.111-0.069
		s0.917-0.158,1.417-0.336c0.5-0.177,0.995-0.433,1.486-0.768c0.49-0.336,0.931-0.792,1.319-1.369
		c0.39-0.577,0.709-1.299,0.959-2.165s0.375-1.914,0.375-3.144c0-1.191-0.116-2.258-0.348-3.199
		c-0.231-0.94-0.611-1.741-1.139-2.403c-0.528-0.661-1.209-1.164-2.042-1.508C62.047,3.232,61.02,3.06,59.797,3.06h-4.445v15.478
		H59.741z"/>
</g>
<g>
	<g>
		<path fill="#C31D85" d="M-40.715-100.348l10.47,16.213h0.056v-16.213h2.506v19.991h-2.896L-40.965-96.4h-0.056v16.043h-2.506
			v-19.991H-40.715z"/>
		<path fill="#C31D85" d="M-9.669-100.348v2.24h-11.082v6.356h10.331v2.24h-10.331v6.916h11.166v2.239h-13.811v-19.991H-9.669z"/>
		<path fill="#C31D85" d="M-8.193-100.348h3.175l4.956,7.812l5.18-7.812h2.951l-6.572,9.716l6.99,10.275h-3.23l-5.346-8.26
			l-5.513,8.26h-2.953l6.905-10.275L-8.193-100.348z"/>
		<path fill="#C31D85" d="M8.513-98.108v-2.24H24.41v2.24h-6.627v17.751h-2.645v-17.751H8.513z"/>
	</g>
</g>
<text transform="matrix(0.9944 0 0 1 -45.7876 -80.3853)" fill="#999999" font-family="'HelveticaNeue'" font-size="27.9383">NEXT</text>
<polygon fill="#898989" points="-27.186,-53.863 -16.93,-46.199 -27.186,-38.533 "/>
<text transform="matrix(0.9944 0 0 1 -106.5898 -37.2271)" fill="#999999" font-family="'HelveticaNeue'" font-size="27.9383">SEND</text>
</svg>
