<?xml version="1.0" encoding="utf-8"?>
<!-- Generator: Adobe Illustrator 15.0.0, SVG Export Plug-In . SVG Version: 6.00 Build 0)  -->
<!DOCTYPE svg PUBLIC "-//W3C//DTD SVG 1.0//EN" "http://www.w3.org/TR/2001/REC-SVG-20010904/DTD/svg10.dtd">
<svg version="1.0" id="Layer_1" xmlns="http://www.w3.org/2000/svg" xmlns:xlink="http://www.w3.org/1999/xlink" x="0px" y="0px"
	 width="30.223px" height="29.48px" viewBox="0 0 30.223 29.48" enable-background="new 0 0 30.223 29.48" xml:space="preserve">
<path fill="#B7B7B7" d="M16.369,15.051L28.728,2.692c0.275-0.276,0.275-0.723,0-0.998l-0.389-0.389
	c-0.274-0.275-0.722-0.275-0.997,0l-12.36,12.359L2.623,1.305c-0.275-0.275-0.722-0.275-0.998,0L1.236,1.694
	c-0.275,0.275-0.275,0.722,0,0.998l12.359,12.359L1.236,27.411c-0.275,0.276-0.275,0.723,0,0.998l0.389,0.389
	c0.275,0.275,0.723,0.275,0.998,0l12.359-12.359l12.36,12.359c0.275,0.274,0.723,0.274,0.997,0l0.389-0.389
	c0.275-0.276,0.275-0.722,0-0.998L16.369,15.051z"/>
</svg>
